<svg id="_034-instagram" data-name="034-instagram" xmlns="http://www.w3.org/2000/svg" width="47" height="47" viewBox="0 0 47 47">
  <g id="Group_3" data-name="Group 3">
    <g id="Group_2" data-name="Group 2">
      <path id="Path_2" data-name="Path 2" d="M32.313,0H14.688A14.689,14.689,0,0,0,0,14.688V32.313A14.689,14.689,0,0,0,14.688,47H32.313A14.689,14.689,0,0,0,47,32.313V14.688A14.689,14.689,0,0,0,32.313,0ZM42.594,32.313A10.293,10.293,0,0,1,32.313,42.594H14.688A10.293,10.293,0,0,1,4.406,32.313V14.688A10.293,10.293,0,0,1,14.688,4.406H32.313A10.293,10.293,0,0,1,42.594,14.688Z" fill="#4ffcb1"/>
    </g>
  </g>
  <g id="Group_5" data-name="Group 5" transform="translate(11.387 11.387)">
    <g id="Group_4" data-name="Group 4">
      <path id="Path_3" data-name="Path 3" d="M140.113,128a12.113,12.113,0,1,0,12.113,12.113A12.114,12.114,0,0,0,140.113,128Zm0,19.684a7.571,7.571,0,1,1,7.571-7.571A7.581,7.581,0,0,1,140.113,147.684Z" transform="translate(-128 -128)" fill="#4ffcb1"/>
    </g>
  </g>
  <g id="Group_7" data-name="Group 7" transform="translate(34.489 9.283)">
    <g id="Group_6" data-name="Group 6">
      <circle id="Ellipse_1" data-name="Ellipse 1" cx="1.614" cy="1.614" r="1.614" fill="#4ffcb1"/>
    </g>
  </g>
</svg>
