<svg xmlns="http://www.w3.org/2000/svg" width="47" height="46.022" viewBox="0 0 47 46.022">
  <g id="_039-github" data-name="039-github" transform="translate(0 -5.329)">
    <g id="Group_1" data-name="Group 1" transform="translate(0 5.329)">
      <path id="Path_1" data-name="Path 1" d="M23.5,5.329A23.608,23.608,0,0,0,16.074,51.31c1.175.217,1.6-.511,1.6-1.137,0-.561-.021-2.044-.032-4.013C11.11,47.585,9.729,43,9.729,43,8.663,40.271,7.12,39.545,7.12,39.545c-2.136-1.463.159-1.433.159-1.433a4.936,4.936,0,0,1,3.6,2.432c2.1,3.6,5.5,2.564,6.841,1.959a5.036,5.036,0,0,1,1.492-3.155c-5.217-.6-10.7-2.62-10.7-11.659a9.145,9.145,0,0,1,2.42-6.333,8.5,8.5,0,0,1,.229-6.242s1.974-.635,6.462,2.418a22.182,22.182,0,0,1,11.768,0c4.486-3.052,6.457-2.418,6.457-2.418a8.514,8.514,0,0,1,.235,6.242,9.128,9.128,0,0,1,2.415,6.333c0,9.062-5.493,11.057-10.728,11.641a5.644,5.644,0,0,1,1.6,4.368c0,3.155-.029,5.7-.029,6.471,0,.632.423,1.366,1.616,1.134A23.61,23.61,0,0,0,23.5,5.329Z" transform="translate(0 -5.329)" fill="#4ffcb1"/>
    </g>
  </g>
</svg>
