<svg id="_045-facebook" data-name="045-facebook" xmlns="http://www.w3.org/2000/svg" width="47" height="47" viewBox="0 0 47 47">
  <g id="Group_8" data-name="Group 8">
    <path id="Path_4" data-name="Path 4" d="M41.125,0H5.875A5.881,5.881,0,0,0,0,5.875v35.25A5.881,5.881,0,0,0,5.875,47H23.5V30.844H17.625V23.5H23.5V17.625a8.812,8.812,0,0,1,8.813-8.812h5.875v7.344H35.25c-1.622,0-2.937-.153-2.937,1.469V23.5h7.344l-2.937,7.344H32.313V47h8.813A5.881,5.881,0,0,0,47,41.125V5.875A5.881,5.881,0,0,0,41.125,0Z" fill="#4ffcb1"/>
  </g>
</svg>
